#!OML:ASF F:\VICON\USERDATA\INSTALL\rory3\rory3.ASF
:FULLY-SPECIFIED
:DEGREES
3430
root 5.29332 17.8488 3.35844 716.332 -32.2702 4.34049
lowerback 15.1056 8.4806 1.39958
upperback 1.87994 11.0848 -4.91425
thorax -5.06901 5.39982 -8.04148
lowerneck -17.9308 16.3487 -3.36473
upperneck 42.9456 27.3736 0.598138
head 18.687 10.2847 6.16917
rclavicle 6.25178e-014 -2.3059e-014
rhumerus -36.3065 -10.7603 -78.3395
rradius 41.0044
rwrist 1.88268
rhand -17.1708 9.06061
rfingers 7.12502
rthumb 9.0705 -20.7244
lclavicle 6.25178e-014 -2.3059e-014
lhumerus -29.3878 11.2401 79.0291
lradius 33.8474
lwrist -6.17274
lhand -18.8853 27.2833
lfingers 7.12502
lthumb 7.41582 57.1333
rfemur -25.864 -12.148 14.9797
rtibia 48.4181
rfoot -14.0086 -6.87682
rtoes -2.51475
lfemur -4.14797 -16.291 -24.3835
ltibia 20.2602
lfoot -11.3732 -17.1551
ltoes 3.44572
3431
root 5.36315 17.8542 3.28505 716.325 -32.053 4.3113
lowerback 15.2185 8.44247 1.36857
upperback 1.88841 11.0229 -4.96522
thorax -5.1246 5.36658 -8.08952
lowerneck -17.9144 16.3369 -3.35053
upperneck 43.064 27.371 0.620194
head 18.7529 10.2731 6.18783
rclavicle -2.21645e-013 3.4191e-014
rhumerus -36.3704 -10.5371 -78.6147
rradius 41.1676
rwrist 1.97438
rhand -17.1791 9.15546
rfingers 7.12502
rthumb 9.06251 -20.6299
lclavicle -2.21645e-013 3.4191e-014
lhumerus -29.3465 11.4932 78.7697
lradius 33.9111
lwrist -6.40836
lhand -19.04 27.2877
lfingers 7.12502
lthumb 7.26649 57.143
rfemur -25.7334 -12.5195 15.1466
rtibia 50.2404
rfoot -14.1638 -6.58477
rtoes -1.80127
lfemur -4.60046 -16.2235 -24.291
ltibia 20.3531
lfoot -10.9634 -17.6408
ltoes 4.31738
3432
root 5.43347 17.8595 3.21527 716.374 -31.8934 4.1779
lowerback 15.2676 8.46286 1.48895
upperback 1.9495 11.0664 -5.02306
thorax -5.04466 5.39118 -8.22258
lowerneck -18.048 16.2642 -3.3622
upperneck 43.19 27.2756 0.693026
head 18.8453 10.2196 6.23388
rclavicle -7.44449e-014 1.59028e-014
rhumerus -36.3018 -10.6043 -78.8382
rradius 41.1726
rwrist 2.21795
rhand -17.3855 9.22126
rfingers 7.12502
rthumb 8.86335 -20.5726
lclavicle -7.44449e-014 1.59028e-014
lhumerus -29.096 11.5323 78.6313
lradius 33.9254
lwrist -6.26365
lhand -18.985 27.7087
lfingers 7.12502
lthumb 7.31963 57.5621
rfemur -25.5025 -12.9212 15.4199
rtibia 51.9073
rfoot -14.198 -6.25554
rtoes -0.355047
lfemur -5.02891 -16.4045 -24.1273
ltibia 20.4793
lfoot -10.2873 -17.8328
ltoes 6.64676
3433
root 5.50108 17.8678 3.14808 716.478 -31.8813 4.01455
lowerback 15.2013 8.53351 1.59549
upperback 2.00537 11.1787 -5.04893
thorax -4.9073 5.45333 -8.30373
lowerneck -18.1432 16.2003 -3.39032
upperneck 43.257 27.2199 0.687177
head 18.9102 10.1762 6.24648
rclavicle -2.88238e-015 -2.54444e-014
rhumerus -36.302 -10.7548 -78.9823
rradius 41.2726
rwrist 2.59469
rhand -17.3877 9.28606
rfingers 7.12502
rthumb 8.86122 -20.5079
lclavicle -2.88238e-015 -2.54444e-014
lhumerus -28.9024 11.7297 78.4777
lradius 33.9632
lwrist -6.00975
lhand -18.8017 28.063
lfingers 7.12502
lthumb 7.49659 57.9102
rfemur -25.1907 -13.1868 15.7264
rtibia 53.4158
rfoot -14.2815 -5.92843
rtoes 0.63081
lfemur -5.48359 -16.5814 -23.9415
ltibia 20.6431
lfoot -9.77284 -17.9074
ltoes 8.26338
3434
root 5.56606 17.8774 3.07783 716.636 -31.8772 3.73785
lowerback 15.1945 8.57644 1.74035
upperback 1.99728 11.2625 -5.01453
thorax -4.87956 5.49439 -8.35587
lowerneck -18.1546 16.1699 -3.45664
upperneck 43.3498 27.2074 0.723807
head 18.949 10.1557 6.27695
rclavicle -3.0911e-014 6.36111e-015
rhumerus -36.4761 -10.7049 -79.1199
rradius 41.4884
rwrist 2.75922
rhand -17.2604 9.17358
rfingers 7.12502
rthumb 8.98411 -20.6151
lclavicle -3.0911e-014 6.36111e-015
lhumerus -28.9582 12.0014 78.2771
lradius 34.133
lwrist -5.92653
lhand -18.7465 27.9832
lfingers 7.12502
lthumb 7.5498 57.8285
rfemur -24.7656 -13.3307 16.1496
rtibia 54.7557
rfoot -14.2991 -5.74493
rtoes 0.762144
lfemur -5.95476 -16.6465 -23.6377
ltibia 20.8038
lfoot -9.43523 -17.9472
ltoes 8.78796
